<?xml version="1.0" standalone="no"?>
<!DOCTYPE svg PUBLIC "-//W3C//DTD SVG 20010904//EN"
 "http://www.w3.org/TR/2001/REC-SVG-20010904/DTD/svg10.dtd">
<svg version="1.0" xmlns="http://www.w3.org/2000/svg"
 width="128.000000pt" height="128.000000pt" viewBox="0 0 128.000000 128.000000"
 preserveAspectRatio="xMidYMid meet">
<metadata>
Created by potrace 1.11, written by Peter Selinger 2001-2013
</metadata>
<g transform="translate(0.000000,128.000000) scale(0.100000,-0.100000)"
fill="#000000" stroke="none">
<path d="M5 1248 c-3 -7 -4 -254 -3 -548 l3 -535 318 -3 c174 -1 317 0 317 4
0 3 -21 30 -47 60 l-47 54 -213 0 -213 0 0 430 0 430 70 0 70 0 2 -212 3 -213
255 0 255 0 3 213 c3 248 2 246 94 155 l58 -57 0 -88 0 -88 55 0 55 0 0 117 0
118 -87 87 -88 88 -428 0 c-333 0 -429 -3 -432 -12z m655 -257 c0 -110 -3
-150 -12 -153 -11 -4 -56 -3 -88 1 -6 1 -10 59 -10 151 l0 150 55 0 55 0 0
-149z"/>
<path d="M800 591 l0 -160 -114 -3 -113 -3 170 -195 c93 -107 173 -196 177
-198 4 -2 86 86 181 195 l173 198 -112 3 -111 3 -3 157 -3 157 -122 3 -123 3
0 -160z"/>
</g>
</svg>
