<?xml version="1.0" encoding="utf-8"?>
<svg viewBox="50.12941360473633 11.341998100280762 399.0487480163574 478.009259223938" width="399.0487480163574" height="478.009259223938" xmlns="http://www.w3.org/2000/svg">
  <path fill="#000000" d="M 304.997 11.342 C 338.444 28.833 371.378 47.2 404.509 65.288 C 370.585 139.275 339.635 214.696 304.997 288.363 C 305.156 196.01 305.156 103.696 304.997 11.342 Z" transform="matrix(1, 0, 0, 1, 0, 0)"/>
  <path d="M 173.187 105.807 C 207.231 90.986 245.043 88.636 281.548 92.779 C 281.904 147.681 280.397 202.623 282.46 257.486 C 265.954 242.505 238.894 239.557 221.593 254.777 C 201.715 269.279 197.827 300.993 215.166 318.962 C 230.917 339.76 262.7 340.517 281.467 323.424 C 282.102 331.672 282.42 339.999 282.142 348.286 C 285.871 352.748 290.712 355.736 296.466 356.852 C 299.283 353.665 301.942 350.358 304.401 346.931 C 333.763 281.311 362.133 215.214 391.614 149.634 C 451.488 208.082 466.168 305.217 428.514 379.602 C 409.787 416.017 380.305 446.975 343.961 465.899 C 293.53 493.55 231.038 496.418 177.472 476.258 C 120.931 454.027 74.667 405.14 58.279 346.095 C 47.526 310.157 47.408 270.992 57.961 234.975 C 73.953 177.244 118.233 128.637 173.187 105.807 Z" style="fill: rgb(150, 51, 12);" transform="matrix(1, 0, 0, 1, 0, 0)"/>
</svg>