<?xml version="1.0" encoding="utf-8"?>
<svg viewBox="0 0 500 500" xmlns="http://www.w3.org/2000/svg">
  <path fill="none" stroke="#414042" stroke-miterlimit="10" d="M 142.473 262.121 C 142.473 202.581 180.007 152.964 229.744 141.826 C 99.539 152.734 12.494 262.312 12.494 262.312 C 12.494 262.312 101.586 374.129 233.653 383.106 C 182.004 373.738 142.473 323.221 142.473 262.121 Z" style="stroke-width: 16;"/>
  <path fill="none" stroke="#414042" stroke-miterlimit="10" d="M 359.322 262.121 C 359.322 322.877 320.285 373.155 269.05 382.943 C 400.153 372.972 488.197 262.312 488.197 262.312 C 488.197 262.312 402.151 153.749 272.84 141.97 C 322.215 153.45 359.322 202.888 359.322 262.121 Z" style="stroke-width: 16;"/>
  <path fill="none" stroke="#414042" stroke-miterlimit="10" d="M 279.839 247.021 C 262.844 247.021 249.058 231.558 249.058 212.476 C 249.058 208.841 249.699 205.405 250.64 202.103 C 221.311 202.256 197.581 229.058 197.581 262.121 C 197.581 295.298 221.465 322.178 250.919 322.178 C 280.37 322.178 304.256 295.298 304.256 262.121 C 304.256 253.719 302.71 245.72 299.942 238.458 C 294.515 243.73 287.55 247.021 279.839 247.021 Z" style="stroke-width: 16;"/>
</svg>