<?xml version="1.0" encoding="UTF-8"?>
<svg version="1.1" xmlns="http://www.w3.org/2000/svg" width="102" height="102">
<path d="M0 0 C2.77064326 0.00542442 5.5411288 -0.00001365 8.31176758 -0.00634766 C10.09236689 -0.00568782 11.87296611 -0.00440861 13.65356445 -0.00244141 C14.47236588 -0.00446564 15.2911673 -0.00648987 16.13478088 -0.00857544 C20.42872867 0.00895762 24.45171689 0.2766484 28.6809082 1.13037109 C28.0209082 2.45037109 27.3609082 3.77037109 26.6809082 5.13037109 C26.0209082 5.13037109 25.3609082 5.13037109 24.6809082 5.13037109 C24.6809082 5.79037109 24.6809082 6.45037109 24.6809082 7.13037109 C17.77745616 11.10508591 10.69432755 10.50975182 2.9309082 10.38037109 C1.5356511 10.3664326 0.14038706 10.35317175 -1.25488281 10.34057617 C-5.2770433 10.29706437 -9.29764485 10.2178276 -13.3190918 10.13037109 C-14.36629395 10.10958496 -15.41349609 10.08879883 -16.49243164 10.06738281 C-19.08192353 10.00657547 -21.66849429 9.92139499 -24.2565918 9.81787109 C-24.97492187 9.79563477 -25.69325195 9.77339844 -26.43334961 9.75048828 C-31.58920159 9.47626712 -35.60714481 8.09412107 -40.3190918 6.13037109 C-39.9890918 5.14037109 -39.6590918 4.15037109 -39.3190918 3.13037109 C-27.78312694 -1.86624654 -12.39696181 -0.02893626 0 0 Z " fill="#E18B2C" transform="translate(48.319091796875,23.86962890625)"/>
<path d="M0 0 C1.48828125 1.671875 1.48828125 1.671875 2.6875 3.25 C3.3475 3.91 4.0075 4.57 4.6875 5.25 C5.07284912 4.6739502 5.45819824 4.09790039 5.85522461 3.50439453 C8.99442991 -0.41993195 11.26611193 -2.51631061 16.32861328 -3.34863281 C20.65084684 -3.49083526 24.94100786 -3.18435873 29.25 -2.875 C30.74397189 -2.80366548 32.23812009 -2.73592818 33.73242188 -2.671875 C48.30479437 -1.94135282 48.30479437 -1.94135282 54.6875 1.25 C54.3575 2.24 54.0275 3.23 53.6875 4.25 C48.66810646 6.14192526 43.78324689 6.65897014 38.4375 6.875 C37.60831055 6.91149658 36.77912109 6.94799316 35.92480469 6.9855957 C27.69913514 7.2953277 19.46777434 7.38391986 11.23693848 7.42523193 C9.72902514 7.43327702 8.22112406 7.444282 6.71325684 7.45855713 C-3.6798882 7.54644781 -14.08955312 7.32254653 -24.3125 5.25 C-24.9725 4.59 -25.6325 3.93 -26.3125 3.25 C-25.9825 2.26 -25.6525 1.27 -25.3125 0.25 C-24.47589844 0.11464844 -23.63929687 -0.02070312 -22.77734375 -0.16015625 C-20.40784244 -0.56353246 -18.04554641 -1.01104437 -15.69140625 -1.49609375 C-4.12252718 -3.59199098 -4.12252718 -3.59199098 0 0 Z " fill="#E18C2F" transform="translate(36.3125,73.75)"/>
<path d="M0 0 C1.16453705 0.00415421 1.16453705 0.00415421 2.3526001 0.00839233 C33.63558382 0.13971121 33.63558382 0.13971121 41 5.25 C35.11375705 11.13624295 21.77789582 10.2334813 14.03564453 10.26733398 C10.43156626 10.22323652 6.82992616 10.12504301 3.22753906 10.00805664 C1.00341548 9.93760818 -1.22071581 9.88321964 -3.4453125 9.83007812 C-25.72190882 9.21674798 -25.72190882 9.21674798 -29.8203125 5.6784668 C-30.20960937 5.20707275 -30.59890625 4.73567871 -31 4.25 C-21.48527704 -0.84411853 -10.49000563 -0.07241457 0 0 Z " fill="#DE4F0B" transform="translate(46,12.75)"/>
<path d="M0 0 C-0.91447846 1.08518111 -1.83170407 2.16804738 -2.75 3.25 C-3.51570313 4.15492187 -3.51570313 4.15492187 -4.296875 5.078125 C-4.85890625 5.71234375 -5.4209375 6.3465625 -6 7 C-6.85440674 8.04196533 -6.85440674 8.04196533 -7.72607422 9.10498047 C-10.70383291 11.58655261 -12.25642746 11.42120112 -16.0859375 11.2421875 C-17.85324219 11.16871094 -17.85324219 11.16871094 -19.65625 11.09375 C-20.8834375 11.0215625 -22.110625 10.949375 -23.375 10.875 C-24.59445313 10.82601562 -25.81390625 10.77703125 -27.0703125 10.7265625 C-32.77851506 10.45236936 -37.60626681 10.00026459 -43 8 C-43.33 8.33 -43.66 8.66 -44 9 C-46.4771123 8.96157224 -48.9062295 8.85499094 -51.375 8.6875 C-52.06078125 8.65205078 -52.7465625 8.61660156 -53.453125 8.58007812 C-57.08928751 8.34309088 -58.90511207 8.06325862 -62 6 C-62 5.01 -62 4.02 -62 3 C-52.11590451 0.60868657 -42.33047164 -0.12803109 -32.1875 -0.5625 C-31.2269873 -0.6042334 -30.26647461 -0.6459668 -29.27685547 -0.68896484 C-9.57655078 -1.50220404 -9.57655078 -1.50220404 0 0 Z " fill="#7CC837" transform="translate(66,36)"/>
<path d="M0 0 C1.67920532 -0.01957764 1.67920532 -0.01957764 3.39233398 -0.03955078 C11.22061446 -0.04757567 18.67557596 0.78969261 26.375 2.1875 C26.87 4.1675 26.87 4.1675 27.375 6.1875 C18.53766374 9.00792647 9.85626455 9.35843851 0.625 9.3125 C-0.36491943 9.30911621 -1.35483887 9.30573242 -2.37475586 9.30224609 C-9.31679025 9.25483762 -16.25116396 9.09730157 -23.1875 8.8125 C-24.04891602 8.78172363 -24.91033203 8.75094727 -25.79785156 8.71923828 C-30.40960682 8.49827744 -34.28315162 7.91860973 -38.625 6.1875 C-38.625 5.1975 -38.625 4.2075 -38.625 3.1875 C-25.91366031 0.10686944 -13.00670814 0.08716798 0 0 Z " fill="#DF5312" transform="translate(56.625,81.8125)"/>
<path d="M0 0 C1.30590088 0.04398926 1.30590088 0.04398926 2.63818359 0.08886719 C5.26445415 0.19755372 7.8788433 0.36739285 10.5 0.5625 C11.66644043 0.64298584 11.66644043 0.64298584 12.85644531 0.72509766 C21.58322052 1.39298275 21.58322052 1.39298275 25.5 2.5625 C26.8984375 4.640625 26.8984375 4.640625 27.5 6.5625 C22.61536447 9.00481777 17.60499432 9.24040893 12.25 9.6875 C11.28304199 9.77241699 10.31608398 9.85733398 9.31982422 9.94482422 C0.70002892 10.64955168 -7.85853626 10.76879489 -16.5 10.5625 C-16.5 6.99998715 -15.9460747 6.45369134 -13.59375 3.91015625 C-9.26603954 -0.21659376 -5.77463516 -0.35402622 0 0 Z " fill="#7CC738" transform="translate(69.5,59.4375)"/>
<path d="M0 0 C0.495 2.475 0.495 2.475 1 5 C-4.95667181 7.59927497 -10.19958933 8.32488305 -16.625 8.375 C-17.34099365 8.38853516 -18.0569873 8.40207031 -18.79467773 8.41601562 C-23.88263931 8.3738162 -27.44331107 7.26040475 -32 5 C-32 3.68 -32 2.36 -32 1 C-22.13363129 -4.50681044 -10.60738256 -2.14058891 0 0 Z " fill="#D33238" transform="translate(67,4)"/>
<path d="M0 0 C1.78083984 0.16242187 1.78083984 0.16242187 3.59765625 0.328125 C10.21902398 1.12004938 10.21902398 1.12004938 13 2 C14.3671875 4.078125 14.3671875 4.078125 15 6 C4.53936274 11.59522458 -8.44540672 10.14383311 -20 10 C-15.40738346 0.30915776 -10.47881753 -1.03677347 0 0 Z " fill="#1EA667" transform="translate(84,48)"/>
<path d="M0 0 C1.12426392 -0.0009668 1.12426392 -0.0009668 2.27124023 -0.00195312 C5.47427321 0.02992866 8.06687973 0.16812658 11.125 1.1875 C11.455 2.8375 11.785 4.4875 12.125 6.1875 C7.7010528 7.20168552 3.2671127 7.61372094 -1.25 7.9375 C-2.34441406 8.03998047 -2.34441406 8.03998047 -3.4609375 8.14453125 C-8.75953473 8.5135407 -12.21753993 7.81108216 -16.875 5.1875 C-17.205 4.1975 -17.535 3.2075 -17.875 2.1875 C-11.84058565 0.43203401 -6.24478252 -0.00528379 0 0 Z " fill="#D22E35" transform="translate(54.875,91.8125)"/>
<path d="M0 0 C1.31871094 0.07831055 1.31871094 0.07831055 2.6640625 0.15820312 C4.81807499 0.28697561 6.97159659 0.42391463 9.125 0.5625 C8.18909496 1.6680189 7.25120142 2.77185453 6.3125 3.875 C5.79042969 4.48988281 5.26835938 5.10476562 4.73046875 5.73828125 C0.58107558 10.45304186 0.58107558 10.45304186 -3 11.3125 C-8.93197693 10.16437543 -12.09431616 6.09760601 -15.875 1.5625 C-15.875 1.2325 -15.875 0.9025 -15.875 0.5625 C-10.47781966 -0.63195794 -5.46375569 -0.35794183 0 0 Z " fill="#15A362" transform="translate(44.875,47.4375)"/>
<path d="M0 0 C4.53560907 0.78880158 7.04688763 4.01087911 9.875 7.5 C9.875 7.83 9.875 8.16 9.875 8.5 C3.64456003 8.58789022 -2.59122827 8.64167597 -8.8125 8.25 C-9.99392578 8.18039063 -9.99392578 8.18039063 -11.19921875 8.109375 C-13.125 7.5 -13.125 7.5 -14.39453125 5.453125 C-14.63558594 4.80859375 -14.87664063 4.1640625 -15.125 3.5 C-10.4119931 0.3579954 -5.46850923 0.87496148 0 0 Z " fill="#7CC837" transform="translate(20.125,60.5)"/>
<path d="M0 0 C0.85271484 0.23783203 0.85271484 0.23783203 1.72265625 0.48046875 C2.05265625 1.80046875 2.38265625 3.12046875 2.72265625 4.48046875 C-4.08579074 7.57521738 -10.9402521 7.63020531 -18.27734375 7.48046875 C-14.40680128 -0.78131697 -8.40535016 -1.91751556 0 0 Z " fill="#7FC83C" transform="translate(95.27734375,37.51953125)"/>
<path d="M0 0 C-0.33 0.99 -0.66 1.98 -1 3 C-0.01 4.485 -0.01 4.485 1 6 C0.67 6.33 0.34 6.66 0 7 C-1.77348504 6.96189206 -3.54554939 6.84430224 -5.3125 6.6875 C-6.76076172 6.56955078 -6.76076172 6.56955078 -8.23828125 6.44921875 C-10.8913406 6.01767444 -12.69363007 5.34218678 -15 4 C-14.2734375 2.05078125 -14.2734375 2.05078125 -13 0 C-10.9765625 -0.64453125 -10.9765625 -0.64453125 -8.625 -0.8125 C-7.85414062 -0.88082031 -7.08328125 -0.94914062 -6.2890625 -1.01953125 C-4.01852779 -1.00015809 -2.16783507 -0.64837076 0 0 Z " fill="#34AD74" transform="translate(18,50)"/>
<path d="M0 0 C2.12563103 0.11376617 4.2505261 0.24135631 6.375 0.375 C8.15003906 0.47941406 8.15003906 0.47941406 9.9609375 0.5859375 C13 1 13 1 15 3 C14.67 3.99 14.34 4.98 14 6 C8.13043478 7.4673913 8.13043478 7.4673913 5 6 C3.16060908 4.09718181 1.61520591 2.10874104 0 0 Z " fill="#E18F36" transform="translate(79,25)"/>
<path d="M0 0 C0 0.33 0 0.66 0 1 C-7.38461538 3.21538462 -7.38461538 3.21538462 -10.5 2.125 C-10.995 1.75375 -11.49 1.3825 -12 1 C-12 0.67 -12 0.34 -12 0 C-7.66726186 -0.92844389 -4.33273814 -0.92844389 0 0 Z " fill="#28A86C" transform="translate(41,48)"/>
<path d="M0 0 C1.32 0.99 2.64 1.98 4 3 C3.34 3 2.68 3 2 3 C1.67 3.99 1.34 4.98 1 6 C0.01 5.34 -0.98 4.68 -2 4 C-1.34 2.68 -0.68 1.36 0 0 Z " fill="#85CB49" transform="translate(7,62)"/>
<path d="M0 0 C2.375 0.25 2.375 0.25 5 1 C6.3125 3.0625 6.3125 3.0625 7 5 C6.01 5 5.02 5 4 5 C1.8125 2.5 1.8125 2.5 0 0 Z " fill="#E29544" transform="translate(79,25)"/>
<path d="" fill="#E1AB7C" transform="translate(0,0)"/>
<path d="" fill="#87B753" transform="translate(0,0)"/>
<path d="" fill="#7EB59E" transform="translate(0,0)"/>
<path d="" fill="#6DB391" transform="translate(0,0)"/>
<path d="" fill="#61B88D" transform="translate(0,0)"/>
<path d="" fill="#529C81" transform="translate(0,0)"/>
<path d="" fill="#9FD371" transform="translate(0,0)"/>
<path d="" fill="#AFC19B" transform="translate(0,0)"/>
<path d="" fill="#DDAA71" transform="translate(0,0)"/>
<path d="" fill="#AAABAD" transform="translate(0,0)"/>
<path d="" fill="#C2C5C9" transform="translate(0,0)"/>
</svg>
